<svg width="22" height="23" viewBox="0 0 22 23" fill="none" xmlns="http://www.w3.org/2000/svg">
<path fill-rule="evenodd" clip-rule="evenodd" d="M11.0959 0.825806C5.2007 0.825806 0.421753 5.60481 0.421753 11.5C0.421753 17.3951 5.2007 22.1741 11.0959 22.1741C16.9911 22.1741 21.7701 17.3951 21.7701 11.5C21.7701 5.60481 16.9911 0.825806 11.0959 0.825806ZM9.99004 20.5833C7.96483 20.3407 6.091 19.4341 4.62632 17.9695C2.89824 16.2414 1.94659 13.9439 1.94659 11.5C1.94659 9.29999 2.71821 7.21883 4.1328 5.56459C4.16923 6.00167 4.25919 6.47025 4.23615 6.80521C4.15199 8.02632 4.0315 8.79055 4.74625 9.82076C5.02471 10.222 5.09311 10.7972 5.22865 11.2617C5.3612 11.716 5.89075 11.9544 6.25598 12.2343C6.99286 12.7993 7.69782 13.4559 8.47919 13.9532C8.99488 14.2813 9.31701 14.4446 9.16598 15.0739C9.04451 15.58 9.01059 15.8917 8.74876 16.3426C8.66886 16.4802 9.05036 17.3648 9.17732 17.4917C9.5621 17.8765 9.94391 18.2294 10.3633 18.5758C11.0136 19.1131 10.3002 19.8112 9.99004 20.5833ZM17.5654 17.9696C16.25 19.285 14.6044 20.1499 12.8156 20.4883C13.0692 19.8614 13.5205 19.3044 13.9392 18.9815C14.3035 18.7005 14.7596 18.1599 14.9499 17.7318C15.1399 17.3042 15.3918 16.9335 15.6466 16.5403C16.0092 15.981 14.7527 15.1375 14.3455 14.9607C13.4293 14.563 12.7396 14.0262 11.9253 13.4533C11.3452 13.0451 10.1673 13.6664 9.51234 13.3805C8.61525 12.9888 7.87617 12.3082 7.09639 11.721C6.29172 11.1149 6.33062 10.4084 6.33062 9.51443C6.96091 9.53768 7.85754 9.34 8.27599 9.84687C8.40803 10.0068 8.86204 10.7214 9.16595 10.4675C9.41422 10.26 8.98197 9.42837 8.89848 9.23285C8.64163 8.63166 9.48371 8.39718 9.91473 7.98951C10.4772 7.45765 11.6837 6.62353 11.5883 6.24229C11.493 5.86104 10.3811 4.7809 9.72808 4.94943C9.63022 4.97468 8.76859 5.87813 8.60211 6.01987C8.60653 5.725 8.61094 5.43018 8.61546 5.1353C8.61828 4.94912 8.26814 4.75801 8.2844 4.63793C8.32546 4.33443 9.17026 3.78363 9.3804 3.54193C9.23317 3.44991 8.73077 3.01838 8.57871 3.0817C8.21056 3.23515 7.79478 3.34086 7.42662 3.49425C7.42662 3.36657 7.41112 3.24664 7.39265 3.1282C8.1304 2.80156 8.911 2.57443 9.71787 2.45326L10.4406 2.74372L10.9509 3.34933L11.4602 3.87447L11.9054 4.0179L12.6125 3.35102L12.4302 2.87494V2.447C13.8286 2.65012 15.1492 3.17182 16.3058 3.97628C16.0989 3.99481 15.8715 4.02524 15.615 4.05788C15.509 3.99527 15.3731 3.96684 15.2576 3.92327C15.5927 4.64388 15.9423 5.35453 16.2975 6.0656C16.6769 6.82516 17.5185 7.63988 17.6663 8.44168C17.8405 9.38675 17.7196 10.2452 17.8149 11.3571C17.9067 12.4279 19.0221 13.6445 19.0221 13.6445C19.0221 13.6445 19.5372 13.8199 19.9655 13.7588C19.5662 15.3385 18.7476 16.7873 17.5654 17.9696Z" fill="white"/>
</svg>
